<svg id="Layer_1" data-name="Layer 1" xmlns="http://www.w3.org/2000/svg" viewBox="0 0 593.68 942.42"><defs><style>.cls-1{fill:#fff;}</style></defs><path class="cls-1" d="M546.55,507c-10.06,10.26-19.18,19.38-28.09,28.7-5.87,6.15-8.67,13-8.61,22.2.49,78,.21,156,.48,233.94a18,18,0,0,0,4.78,11.41q79.9,80.49,160.18,160.6a14.49,14.49,0,0,1,2.55,4.45l119-119c-38.64-38.64-77.91-77.9-117-117l-71.72,71.71,29,29.07,43-37,54.68,54.67-57.59,53.45c1.33.72.79.57.45.22Q616.77,843.55,556,782.48c-2.16-2.18-3-6.48-3.06-9.79-.17-60.59.66-121.2-.59-181.77-.4-18.86,3-33.77,18.79-44.73,1.28-.88,2.93-2.05,3.22-3.35.51-2.32,1.14-5.78-.08-7.12C565.6,526.23,556.45,517.16,546.55,507ZM322.6,907.25Q294.48,878,267,849.32c18.38-19.08,36.52-37.93,55.32-57.46,16.28,17.08,31.57,33.68,47.46,49.69C411.7,883.81,454,925.76,495.91,968c4.67,4.7,7.25,3.84,11.4-.41,16.18-16.6,32.84-32.75,49-49.33,8.16-8.33,15.73-17.24,23.53-25.84l-29.46-31.79-49.7,49.88L321.24,731,203.16,851.49,323.71,965.73l75.54-75.55L365,862.66ZM456.45,304.93,615.87,145.5,499.17,28.79,381.78,146.18C407.11,171.55,433,197.45,456,220.52L491.14,192l-47-46.48,55.34-57.07,54.75,56.85L426.71,275.23ZM342.9,450.74c1.21,1.31,2.92,3.23,4.71,5.06q48.4,49.2,96.7,98.51a14.93,14.93,0,0,1,4,9.42q.35,103.5,0,207c0,3.39-2.07,7.38-4.39,10-7.85,9-16.25,17.52-23.38,25.09l31,31c12.53-12.59,25.82-25.71,38.72-39.2,1.82-1.9,2.44-5.62,2.44-8.49q.19-121.68-.11-243.36a18.21,18.21,0,0,0-4.87-11.38c-17.4-18-35.28-35.48-52.9-53.25-5.14-5.19-9.74-10.91-14.94-16.05-15.27-15.12-30.72-30.07-47.23-46.19ZM265.71,494,394.83,364.87l-29.56-29.5-160,162.18c-1.75-1.53-1.81-1.19-1.66-1Q260.35,554.22,317,611.92c3.21,3.27,5.47,2.78,8.49-.25,24.54-24.64,49.18-49.17,72.84-72.78l-32-32.22L319.5,553.83ZM322,270.67,455.31,398c9-8.42,19.59-18.33,30.34-28.38L323,204.61c-38.67,38.66-76.81,76.86-115.1,114.91-3.84,3.81-3.23,6.15.28,9.62q34.53,34.19,68.71,68.72c3.75,3.79,6.2,3.51,9.62-.2,8.5-9.23,17.27-18.21,26.69-28.07l-48.33-48.18ZM733.2,498l-56.73,52.59L543.57,423.85,514.32,453,675.16,616.16c38.62-38.63,76.78-76.85,115-115,3.28-3.26,3.81-5.54.27-9.05q-34.83-34.48-69.3-69.31c-3.81-3.86-6.31-3.38-9.62.31-6.81,7.61-13.64,15.21-20.9,22.38-3.87,3.82-4.13,6.33-.07,10.24C704.22,468.94,717.54,482.45,733.2,498ZM601.66,283.26c8.28,8.15,16.82,16,24.67,24.5,4.62,5,7.6,5.44,12.53.2,12.79-13.61,26.18-26.66,41.42-42l53.79,60.14c-42.54,42.53-86.56,86.55-129.39,129.36l30.76,30.71a74.81,74.81,0,0,1,4.91-5.89Q713.49,407,786.69,333.85c1.49-1.49,2.74-3.53,4.54-4.35,7.91-3.63,5-7.12.57-11.53Q737.2,263.64,682.87,209c-1.39-1.4-2-3.57-2.49-4.47Zm-86.21-6.64c3.76,4.55,6.92,9.08,10.76,12.94q48.78,49.05,97.9,97.75c1.33,1.32,5.78,1.69,7,.57,9.59-8.93,18.75-18.33,27.6-27.15L545,247.12Zm28.9,63.93-72.79,72.81c-11.92,11.92-23.95,23.73-35.6,35.9-1.57,1.63-2.61,6.35-1.57,7.48,9.07,9.75,18.67,19,28.61,28.92l111.92-114.3Z" transform="translate(-203.16 -28.79)"/><path class="cls-1" d="M546.55,507c9.9,10.13,19.05,19.2,27.74,28.69,1.22,1.34.59,4.8.08,7.12-.29,1.3-1.94,2.47-3.22,3.35-15.81,11-19.19,25.87-18.79,44.73,1.25,60.57.42,121.18.59,181.77,0,3.31.9,7.61,3.06,9.79q60.62,61.2,121.7,121.95c.34.35.88.5-.45-.22l57.59-53.45-54.68-54.67-43,37-29-29.07,71.72-71.71c39.08,39.09,78.35,78.35,117,117l-119,119a14.49,14.49,0,0,0-2.55-4.45q-80.09-80.29-160.18-160.6a18,18,0,0,1-4.78-11.41c-.27-78,0-156-.48-233.94-.06-9.24,2.74-16,8.61-22.2C527.37,526.41,536.49,517.29,546.55,507Z" transform="translate(-203.16 -28.79)"/><path class="cls-1" d="M322.6,907.25,365,862.66l34.21,27.52-75.54,75.55L203.16,851.49,321.24,731,500.72,910.55l49.7-49.88,29.46,31.79c-7.8,8.6-15.37,17.51-23.53,25.84-16.2,16.58-32.86,32.73-49,49.33-4.15,4.25-6.73,5.11-11.4.41C454,925.76,411.7,883.81,369.75,841.55c-15.89-16-31.18-32.61-47.46-49.69-18.8,19.53-36.94,38.38-55.32,57.46Q294.54,878,322.6,907.25Z" transform="translate(-203.16 -28.79)"/><path class="cls-1" d="M456.45,304.93l-29.74-29.7L554.23,145.32,499.48,88.47l-55.34,57.07,47,46.48L456,220.52c-23-23.07-48.91-49-74.24-74.34L499.17,28.79,615.87,145.5Z" transform="translate(-203.16 -28.79)"/><path class="cls-1" d="M342.9,450.74,372.58,419c16.51,16.12,32,31.07,47.23,46.19,5.2,5.14,9.8,10.86,14.94,16.05,17.62,17.77,35.5,35.28,52.9,53.25a18.21,18.21,0,0,1,4.87,11.38q.42,121.68.11,243.36c0,2.87-.62,6.59-2.44,8.49-12.9,13.49-26.19,26.61-38.72,39.2l-31-31c7.13-7.57,15.53-16.09,23.38-25.09,2.32-2.65,4.37-6.64,4.39-10q.38-103.5,0-207a14.93,14.93,0,0,0-4-9.42q-48.15-49.45-96.7-98.51C345.82,454,344.11,452.05,342.9,450.74Z" transform="translate(-203.16 -28.79)"/><path class="cls-1" d="M265.71,494l53.79,59.85,46.87-47.16,32,32.22c-23.66,23.61-48.3,48.14-72.84,72.78-3,3-5.28,3.52-8.49.25Q260.4,554.16,203.65,496.51c-.15-.15-.09-.49,1.66,1l160-162.18,29.56,29.5Z" transform="translate(-203.16 -28.79)"/><path class="cls-1" d="M322,270.67l-57.13,50.74,48.33,48.18c-9.42,9.86-18.19,18.84-26.69,28.07-3.42,3.71-5.87,4-9.62.2q-34.15-34.56-68.71-68.72c-3.51-3.47-4.12-5.81-.28-9.62,38.29-38,76.43-76.25,115.1-114.91l162.64,165c-10.75,10.05-21.35,20-30.34,28.38Z" transform="translate(-203.16 -28.79)"/><path class="cls-1" d="M733.2,498c-15.66-15.59-29-29.1-42.62-42.27-4.06-3.91-3.8-6.42.07-10.24,7.26-7.17,14.09-14.77,20.9-22.38,3.31-3.69,5.81-4.17,9.62-.31q34.44,34.86,69.3,69.31c3.54,3.51,3,5.79-.27,9.05-38.26,38.11-76.42,76.33-115,115L514.32,453l29.25-29.13,132.9,126.78Z" transform="translate(-203.16 -28.79)"/><path class="cls-1" d="M601.66,283.26l78.72-78.7c.49.9,1.1,3.07,2.49,4.47Q737.23,263.6,791.8,318c4.42,4.41,7.34,7.9-.57,11.53-1.8.82-3.05,2.86-4.54,4.35Q713.5,407,640.35,480.24a74.81,74.81,0,0,0-4.91,5.89l-30.76-30.71c42.83-42.81,86.85-86.83,129.39-129.36l-53.79-60.14c-15.24,15.38-28.63,28.43-41.42,42-4.93,5.24-7.91,4.79-12.53-.2C618.48,299.26,609.94,291.41,601.66,283.26Z" transform="translate(-203.16 -28.79)"/><path class="cls-1" d="M515.45,276.62,545,247.12,658.69,360.73c-8.85,8.82-18,18.22-27.6,27.15-1.2,1.12-5.65.75-7-.57q-49.17-48.65-97.9-97.75C522.37,285.7,519.21,281.17,515.45,276.62Z" transform="translate(-203.16 -28.79)"/><path class="cls-1" d="M544.35,340.55l30.57,30.81L463,485.66c-9.94-9.9-19.54-19.17-28.61-28.92-1-1.13,0-5.85,1.57-7.48,11.65-12.17,23.68-24,35.6-35.9Z" transform="translate(-203.16 -28.79)"/></svg>